<?xml version="1.0" encoding="UTF-8"?>
<svg id="Layer_2" data-name="Layer 2" xmlns="http://www.w3.org/2000/svg" xmlns:xlink="http://www.w3.org/1999/xlink" viewBox="0 0 3400 963">
  <defs>
    <style>
      .cls-1 {
        fill: url(#linear-gradient);
      }

      .cls-2 {
        fill: #fff;
      }

      .cls-3 {
        fill: #2a8cfc;
      }

      .cls-4 {
        fill: url(#linear-gradient-3);
      }

      .cls-5 {
        fill: url(#linear-gradient-4);
      }

      .cls-6 {
        fill: url(#linear-gradient-2);
      }

      .cls-7 {
        fill: url(#linear-gradient-6);
      }

      .cls-8 {
        fill: url(#linear-gradient-5);
      }
    </style>
    <linearGradient id="linear-gradient" x1="423.57" y1="69.09" x2="202.24" y2="159.41" gradientTransform="translate(0 964.45) scale(1 -1)" gradientUnits="userSpaceOnUse">
      <stop offset="0" stop-color="#404eff"/>
      <stop offset="1" stop-color="#1725ce"/>
    </linearGradient>
    <linearGradient id="linear-gradient-2" x1="610.09" y1="347.87" x2="339.14" y2="426.9" gradientTransform="translate(0 964.45) scale(1 -1)" gradientUnits="userSpaceOnUse">
      <stop offset="0" stop-color="#404eff"/>
      <stop offset="1" stop-color="#1725ce"/>
    </linearGradient>
    <linearGradient id="linear-gradient-3" x1="543.34" y1="682.44" x2="292.74" y2="793.1" gradientTransform="translate(0 964.45) scale(1 -1)" gradientUnits="userSpaceOnUse">
      <stop offset="0" stop-color="#404eff"/>
      <stop offset="1" stop-color="#1725ce"/>
    </linearGradient>
    <linearGradient id="linear-gradient-4" x1="107.31" y1="812.65" x2="600.71" y2="812.65" gradientTransform="translate(0 964.45) scale(1 -1)" gradientUnits="userSpaceOnUse">
      <stop offset="0" stop-color="#419cf7"/>
      <stop offset="1" stop-color="#1c82ff"/>
    </linearGradient>
    <linearGradient id="linear-gradient-5" x1="107.31" y1="541.13" x2="643.17" y2="541.13" gradientTransform="translate(0 964.45) scale(1 -1)" gradientUnits="userSpaceOnUse">
      <stop offset="0" stop-color="#419cf7"/>
      <stop offset="1" stop-color="#1c82ff"/>
    </linearGradient>
    <linearGradient id="linear-gradient-6" x1="107.31" y1="232.99" x2="654.59" y2="232.99" gradientTransform="translate(0 964.45) scale(1 -1)" gradientUnits="userSpaceOnUse">
      <stop offset="0" stop-color="#419cf7"/>
      <stop offset="1" stop-color="#1c82ff"/>
    </linearGradient>
  </defs>
  <g id="Objects">
    <g>
      <path class="cls-1" d="m107.31,791.04c0,130.82,300.75,124.91,415.62,64.85-115.72-24.09-266.68-67.93-415.62-64.85Z"/>
      <path class="cls-6" d="m643.17,577.13c-113.88,3.74-326.87-84.34-535.86-80.01,135.74,14.57,547.22,264.45,535.86,80.01Z"/>
      <path class="cls-4" d="m600.71,237.46c-119.79-13.13-308.17-81.85-493.4-78.04,119.13,35.12,493.4,216.73,493.4,77.98v.07Z"/>
      <path class="cls-5" d="m532.57,134.28c-50.67-45.55-112.63-68.07-184.77-68.07H107.31v93.2c185.23-3.87,373.61,64.92,493.4,77.98-11.29-38.66-33.87-73.12-68.07-103.18l-.07.07Z"/>
      <path class="cls-8" d="m624.4,540.04c-20.87-34-49.56-62.03-86.77-83.03,34.46-32.03,56.25-68.53,65.9-109.15-119.59-12.27-309.48-82.11-496.22-78.31v227.56c208.99-4.33,421.98,83.75,535.86,80.01-4.92-12.73-11.16-25.07-18.77-37.09Z"/>
      <path class="cls-7" d="m107.31,607.19v183.85c148.93-3.08,299.9,40.76,415.62,64.85,20.54-10.31,39.78-23.37,57.56-39.19,41.94-37.28,66.56-80.6,74.1-130.22-110.66,10.63-331.07-83.75-547.22-79.29h-.07Z"/>
    </g>
    <g>
      <path class="cls-2" d="m1105.59,437.45c20.15,2.63,37.94,13,53.49,31.18,15.56,18.18,23.3,41.88,23.3,71.22,0,37.22-11.81,66.82-35.44,88.94-23.63,22.12-59.07,33.15-106.33,33.15h-217.26V222.16h216.6c39.38,0,70.89,11.16,94.52,33.48,23.63,22.32,35.44,51.85,35.44,88.61,0,25.4-6.76,46.14-20.35,62.36-13.59,16.21-28.22,25.6-43.98,28.22v2.63h0Zm-192.97-31.51h111.58c17.92,0,32.29-5.12,42.99-15.42,10.7-10.31,16.08-23.96,16.08-41.02,0-14.9-5.12-27.11-15.42-36.76-10.31-9.65-22.84-14.44-37.74-14.44h-117.49v107.65Zm118.15,179.85c19.69,0,34.66-4.92,44.96-14.77,10.31-9.85,15.42-23.1,15.42-39.71s-5.25-29.86-15.75-39.71c-10.5-9.85-24.29-14.77-41.35-14.77h-121.43v108.96h118.15,0Z"/>
      <path class="cls-2" d="m1269.03,661.93V189.34h86.64v472.59h-86.64Z"/>
      <path class="cls-2" d="m1773.12,661.93h-86.64v-29.54c-26.25,26.25-60.58,39.38-103.05,39.38-39.38,0-71.09-12.8-95.17-38.4-24.09-25.6-36.1-58.75-36.1-99.44v-199.54h86.64v181.16c0,23.17,6.04,41.81,18.05,55.79s28.09,21,48.24,21c54.28,0,81.39-37.61,81.39-112.9v-145.06h86.64v327.53Z"/>
      <path class="cls-2" d="m1878.14,661.93V189.34h86.64v472.59h-86.64Z"/>
      <path class="cls-2" d="m2228.38,724.95h-96.49l34.39-73.45-135.87-317.68h96.49l86.64,209.38,90.58-209.38h96.49l-172.23,391.2v-.07Z"/>
      <path class="cls-2" d="m2704.51,647.49c-30.19,16.21-58.61,24.29-85.33,24.29-40.24,0-71.74-10.83-94.52-32.49-22.78-21.66-34.13-54.35-34.13-98.13v-135.87h-70.23v-70.89h70.23v-99.11h86.64v99.11h106.99v70.89h-106.99v129.31c0,37.61,15.95,56.45,47.92,56.45,16.61,0,34.79-5.25,54.48-15.75l24.94,72.2h0Z"/>
      <path class="cls-2" d="m2849.57,200.17c10.04,10.31,15.1,22.45,15.1,36.43s-5.05,26.45-15.1,36.1c-10.04,9.65-22.51,14.44-37.41,14.44s-27.9-4.79-37.74-14.44c-9.85-9.65-14.77-21.66-14.77-36.1s5.05-26.12,15.1-36.43c10.04-10.31,22.51-15.42,37.41-15.42s27.37,5.12,37.41,15.42Zm-80.73,461.76v-327.53h86.64v327.53h-86.64Z"/>
      <path class="cls-2" d="m3287.37,661.93h-103.05l-71.54-103.71-70.89,103.71h-103.05l110.27-159.5-110.27-168.69h103.05l70.89,110.27,71.54-110.27h103.05l-110.27,168.69s110.27,159.5,110.27,159.5Z"/>
    </g>
    <g>
      <path class="cls-3" d="m1674.73,843.62l-11.81-26.78h-55.59l-11.81,26.78h-13.39l47.26-105.54h11.49l47.26,105.54h-13.39Zm-39.51-90.12l-22.97,52.12h45.81l-22.84-52.12Z"/>
      <path class="cls-3" d="m1703.54,843.62v-105.54h12.47v105.54h-12.47Z"/>
      <path class="cls-3" d="m1863.63,843.62l-11.81-26.78h-55.59l-11.81,26.78h-13.39l47.26-105.54h11.49l47.26,105.54h-13.39Zm-39.51-90.12l-22.97,52.12h45.88l-22.84-52.12h-.07Z"/>
      <path class="cls-3" d="m1961.63,843.49h-12.14v-12.6c-6.63,9.78-16.41,14.64-29.27,14.64-9.32,0-16.87-3.02-22.58-9.12-5.71-6.1-8.6-14.05-8.6-23.96v-46.47h12.14v44.31c0,7.22,1.97,13.06,5.91,17.46s9.12,6.63,15.49,6.63c8.27,0,14.83-2.69,19.69-8.14,4.86-5.38,7.22-13.06,7.22-22.91v-37.35h12.14s0,77.52,0,77.52Z"/>
      <path class="cls-3" d="m2035.8,839.55c-5.91,4.07-11.88,6.17-17.98,6.17-7.88,0-14.11-2.3-18.77-6.83-4.59-4.59-6.96-11.03-6.96-19.43v-43.32h-16.87v-10.11h16.87v-24.75h12.14v24.75h27.7v10.11h-27.7v42.53c0,4.92,1.31,8.8,3.87,11.55,2.56,2.76,6.04,4.2,10.5,4.2s8.8-1.58,13.26-4.73l3.94,9.91v-.07Z"/>
      <path class="cls-3" d="m2112.27,775.68c7.94,7.61,11.88,17.33,11.88,29.08s-3.94,21.53-11.88,29.21c-7.94,7.75-17.66,11.55-29.21,11.55s-21.46-3.87-29.41-11.55c-7.94-7.75-11.88-17.46-11.88-29.21s3.94-21.46,11.88-29.08c7.94-7.61,17.72-11.42,29.41-11.42s21.27,3.81,29.21,11.42Zm-8.47,50.8c5.71-5.64,8.6-12.93,8.6-21.73s-2.89-15.88-8.6-21.53c-5.71-5.64-12.6-8.4-20.74-8.4s-15.16,2.82-20.94,8.4c-5.78,5.64-8.66,12.8-8.66,21.53s2.89,16.08,8.66,21.73c5.78,5.64,12.8,8.53,20.94,8.53s14.97-2.82,20.74-8.53Z"/>
      <path class="cls-3" d="m2259.56,772.2c5.51,5.38,8.27,12.47,8.27,21.2v50.28h-11.95v-48.18c0-6.1-1.84-11.03-5.58-14.7-3.74-3.74-8.53-5.58-14.44-5.58-7.22,0-13,2.56-17.33,7.61-4.33,5.12-6.43,12.14-6.43,21.2v39.71h-11.95v-48.18c0-6.1-1.9-11.03-5.58-14.7-3.74-3.74-8.47-5.58-14.24-5.58-7.22,0-13,2.56-17.26,7.61-4.27,5.12-6.37,12.14-6.37,21.2v39.71h-11.95v-77.65h11.95v11.81c5.91-9.12,14.7-13.72,26.45-13.72,5.97,0,11.29,1.38,16.02,4.2,4.66,2.76,8.14,6.63,10.5,11.55,6.5-10.5,16.28-15.75,29.27-15.75,8.27,0,15.23,2.69,20.74,8.14l-.13-.2Z"/>
      <path class="cls-3" d="m2367.4,843.62h-11.95v-12.27c-7.22,9.58-17.53,14.31-30.92,14.31-10.63,0-19.69-3.81-27.31-11.42-7.61-7.61-11.42-17.39-11.42-29.41s3.81-21.79,11.42-29.41c7.61-7.61,16.74-11.42,27.31-11.42,13.32,0,23.63,4.79,30.92,14.31v-12.47h11.95v77.78Zm-20.74-17.07c5.84-5.64,8.73-12.86,8.73-21.66s-2.89-16.21-8.73-21.79c-5.84-5.64-12.6-8.4-20.22-8.4-8.2,0-15.1,2.76-20.61,8.34-5.58,5.58-8.34,12.86-8.34,21.92s2.76,16.28,8.34,21.79c5.58,5.51,12.47,8.27,20.61,8.27,7.68,0,14.44-2.82,20.22-8.4v-.07Z"/>
      <path class="cls-3" d="m2441.77,839.55c-5.91,4.07-11.88,6.17-17.98,6.17-7.88,0-14.11-2.3-18.77-6.83-4.59-4.59-6.96-11.03-6.96-19.43v-43.32h-16.87v-10.11h16.87v-24.75h12.14v24.75h27.7v10.11h-27.7v42.53c0,4.92,1.31,8.8,3.87,11.55,2.56,2.76,6.04,4.2,10.5,4.2s8.8-1.58,13.26-4.73l3.94,9.91v-.07Z"/>
      <path class="cls-3" d="m2470.32,736.83c1.64,1.58,2.43,3.48,2.43,5.64s-.79,4.2-2.36,5.78c-1.58,1.51-3.54,2.3-5.97,2.3s-4.27-.79-5.84-2.3c-1.58-1.51-2.36-3.41-2.36-5.78s.79-4.07,2.36-5.64,3.54-2.36,5.84-2.36,4.27.79,5.91,2.36Zm-11.88,106.79v-77.65h12.14v77.65h-12.14Z"/>
      <path class="cls-3" d="m2563,775.68c7.94,7.61,11.88,17.33,11.88,29.08s-3.94,21.53-11.88,29.21c-7.94,7.75-17.66,11.55-29.21,11.55s-21.46-3.87-29.41-11.55c-7.94-7.75-11.88-17.46-11.88-29.21s3.94-21.46,11.88-29.08c7.94-7.61,17.72-11.42,29.41-11.42s21.27,3.81,29.21,11.42Zm-8.53,50.8c5.71-5.64,8.6-12.93,8.6-21.73s-2.89-15.88-8.6-21.53c-5.71-5.64-12.6-8.4-20.74-8.4s-15.16,2.82-20.94,8.4c-5.78,5.64-8.66,12.8-8.66,21.53s2.89,16.08,8.66,21.73c5.78,5.64,12.73,8.53,20.94,8.53s14.97-2.82,20.74-8.53Z"/>
      <path class="cls-3" d="m2659.22,773.19c5.71,6.1,8.6,14.05,8.6,23.96v46.47h-11.95v-44.24c0-7.22-1.97-13.13-5.97-17.59-4-4.46-9.19-6.69-15.62-6.69-8.27,0-14.83,2.76-19.69,8.2s-7.22,13.13-7.22,22.97v37.35h-11.95v-77.65h11.95v12.93c6.63-9.85,16.41-14.83,29.27-14.83,9.32,0,16.87,3.02,22.58,9.12h0Z"/>
      <path class="cls-3" d="m2813.67,843.62l-11.81-26.78h-55.59l-11.81,26.78h-13.39l47.26-105.54h11.49l47.26,105.54h-13.39Zm-39.51-90.12l-22.97,52.12h45.81l-22.84-52.12Z"/>
      <path class="cls-3" d="m2913.11,837.32c-.13,11.22-3.68,20.08-10.7,26.52-7.02,6.43-16.48,9.71-28.36,9.71-18.9,0-31.57-6.69-37.94-20.15l10.11-6.96c2.82,5.45,6.43,9.52,10.76,12.21s10.04,4,17.07,4c8.2,0,14.77-2.43,19.76-7.35,4.99-4.92,7.48-11.42,7.48-19.63v-9.45c-6.5,8.53-16.21,12.73-29.14,12.73-10.5,0-19.49-3.54-27.04-10.7-7.48-7.15-11.29-16.15-11.29-26.91s3.74-19.63,11.29-26.71c7.48-7.09,16.54-10.63,27.04-10.63,12.8,0,22.51,4.2,29.14,12.6v-10.7h11.68l.13,71.35v.07Zm-19.95-16.28c5.38-5.12,8.14-11.62,8.14-19.63s-2.69-14.44-8.01-19.43c-5.38-4.99-11.81-7.48-19.36-7.48-8.07,0-14.83,2.49-20.22,7.42-5.38,4.92-8.14,11.42-8.14,19.56s2.69,14.64,8.14,19.69c5.38,5.05,12.14,7.55,20.22,7.55,7.48,0,13.92-2.56,19.3-7.61l-.07-.07Z"/>
      <path class="cls-3" d="m3011.83,807.25h-66.62c.53,8.4,3.54,15.16,8.99,20.22,5.45,5.05,11.68,7.61,18.77,7.61,12.73,0,21.53-5.58,26.45-16.67l10.7,2.49c-3.02,8.01-7.81,14.11-14.24,18.38-6.43,4.27-14.11,6.37-22.91,6.37-10.7,0-19.95-3.81-27.7-11.36-7.75-7.55-11.68-17.33-11.68-29.27s3.94-21.92,11.81-29.54c7.88-7.61,17.33-11.42,28.36-11.42s19.49,3.61,26.71,10.76c7.22,7.22,11.03,16.54,11.42,27.96v4.4l-.07.07Zm-56.32-26.25c-5.38,4.27-8.66,9.98-9.85,17.26h54.02c-1.05-7.48-4-13.26-8.8-17.39-4.86-4.14-10.57-6.24-17.2-6.24s-12.8,2.1-18.18,6.37h0Z"/>
      <path class="cls-3" d="m3096.37,773.19c5.71,6.1,8.6,14.05,8.6,23.96v46.47h-11.95v-44.24c0-7.22-1.97-13.13-5.97-17.59-4-4.46-9.19-6.69-15.62-6.69-8.27,0-14.83,2.76-19.69,8.2-4.86,5.45-7.22,13.13-7.22,22.97v37.35h-11.95v-77.65h11.95v12.93c6.63-9.85,16.41-14.83,29.27-14.83,9.32,0,16.87,3.02,22.58,9.12h0Z"/>
      <path class="cls-3" d="m3180.19,830.03c4.66-3.02,7.88-7.35,9.71-13l11.03,3.02c-2.1,7.75-6.56,13.98-13.39,18.64-6.83,4.66-14.57,7.02-23.3,7.02-11.22,0-20.81-3.81-28.68-11.36-7.88-7.55-11.81-17.39-11.81-29.47s3.94-21.79,11.81-29.41,17.46-11.42,28.68-11.42c8.6,0,16.34,2.36,23.17,7.02,6.83,4.66,11.42,10.96,13.72,18.84l-11.49,3.48c-1.71-5.78-4.86-10.24-9.45-13.46-4.59-3.22-9.91-4.79-15.88-4.79-8.07,0-14.9,2.76-20.48,8.34s-8.34,12.73-8.34,21.4,2.76,15.95,8.27,21.4c5.51,5.45,12.34,8.2,20.54,8.2,5.97,0,11.29-1.51,16.02-4.46h-.13Z"/>
      <path class="cls-3" d="m3245.17,870.4h-13.39l12.73-27.9-34.79-76.6h13.52l27.7,62.09,28.36-62.09h13.39l-47.59,104.43.07.07Z"/>
    </g>
  </g>
</svg>